PathFileType	4	(X/Y/Z)	./resultDataOpenSim/trcMotMarkerGrf/sub10/qtm-13-08.trc
DataRate	CameraRate	NumFrames	NumMarkers	Units	OrigDataRate	OrigDataStartFrame	OrigNumFrames
250.000000	250.000000	14	24	m	250.000000	1	529
Frame#	Time	L.Toe.Tip			R.Toe.Tip			L.Ankle.Lat			R.Ankle.Lat			L.Ankle.Med			R.Ankle.Med			L.Heel			R.Heel			L.Knee.Lat			R.Knee.Lat			L.Knee.Med			R.Knee.Med			L.Thigh.Upper			R.Thigh.Upper			L.ASIS			R.ASIS			V.Sacral			L.Acromium			R.Acromium			C7			L.Elbow			R.Elbow			L.Wrist.Lat			R.Wrist.Lat
		X1	Y1	Z1	X2	Y2	Z2	X3	Y3	Z3	X4	Y4	Z4	X5	Y5	Z5	X6	Y6	Z6	X7	Y7	Z7	X8	Y8	Z8	X9	Y9	Z9	X10	Y10	Z10	X11	Y11	Z11	X12	Y12	Z12	X13	Y13	Z13	X14	Y14	Z14	X15	Y15	Z15	X16	Y16	Z16	X17	Y17	Z17	X18	Y18	Z18	X19	Y19	Z19	X20	Y20	Z20	X21	Y21	Z21	X22	Y22	Z22	X23	Y23	Z23	X24	Y24	Z24

1	0	-1.4663086	0.038737184	-0.11445515	-1.059458	0.072753653	0.014436622	-1.594741	0.067723735	-0.15683984	-1.1991747	0.075976544	0.0079189686	-1.5968397	0.091483763	-0.074304704	-1.1612537	0.10956813	-0.062845414	-1.6694616	0.045203282	-0.12116522	-1.2301238	0.048371459	-0.058699607	-1.4557711	0.4312637	-0.18520787	-1.1855342	0.47217147	0.073757563	-1.4637019	0.41236371	-0.064651891	-1.1506938	0.49071821	-0.048158207	-1.3682324	0.81478534	-0.24682452	-1.349927	0.85500984	0.13112794	-1.2986532	0.92232123	-0.18858492	-1.2845718	0.94117776	0.05534591	-1.4898824	0.95548139	-0.053974438	-1.3113813	1.4023737	-0.22592773	-1.3552454	1.4023875	0.093758558	-1.410286	1.4362838	-0.07896265	-1.3740345	1.0637683	-0.30280176	-1.5252944	1.0990274	0.15244112	-1.2084677	0.88050735	-0.29196052	-1.3998469	0.88879083	0.19954352
2	0.004	-1.466289	0.038732949	-0.11452879	-1.0430789	0.074349051	0.014129933	-1.5951701	0.068627186	-0.15714244	-1.183197	0.074157572	0.0083459117	-1.5947454	0.092068676	-0.074337776	-1.1462959	0.10889133	-0.06246785	-1.6695238	0.045632305	-0.12069042	-1.2135509	0.046017535	-0.058049052	-1.4552755	0.43129793	-0.18537747	-1.1804715	0.47091702	0.073573709	-1.4628379	0.41237735	-0.064780598	-1.1466303	0.48976458	-0.048529935	-1.3655473	0.81429356	-0.24708376	-1.3445513	0.85445311	0.13135392	-1.2952333	0.92147938	-0.18883852	-1.2796829	0.94050873	0.055158619	-1.4856624	0.95465939	-0.053024249	-1.3070006	1.4014904	-0.22601878	-1.3512208	1.4015058	0.093565535	-1.4061966	1.4355039	-0.0792943	-1.3679826	1.062429	-0.30284444	-1.5220107	1.0984147	0.15159821	-1.2000338	0.88126431	-0.29101099	-1.3977379	0.88775367	0.19936962
3	0.008	-1.4662638	0.038729094	-0.11460915	-1.0267053	0.076017837	0.013720152	-1.5955668	0.069455147	-0.15747041	-1.1671781	0.072509263	0.0088545298	-1.5914334	0.092774294	-0.074407906	-1.1313664	0.10834393	-0.062052756	-1.6695873	0.046067992	-0.12021767	-1.1970771	0.0438344	-0.057319462	-1.4547683	0.43132338	-0.18554026	-1.1755276	0.46965913	0.073364629	-1.4619483	0.4123601	-0.064904358	-1.1425826	0.48873013	-0.048915212	-1.3628261	0.81380092	-0.24729953	-1.3393154	0.8537947	0.13152081	-1.2918131	0.92063511	-0.18910281	-1.2748462	0.93978541	0.054949186	-1.4814492	0.95377482	-0.052103692	-1.3025792	1.4005651	-0.22609356	-1.3471835	1.4005947	0.093418194	-1.4020767	1.4346929	-0.079581119	-1.361959	1.0610627	-0.30278973	-1.5187269	1.0978036	0.15078865	-1.191599	0.88199635	-0.29005948	-1.3955849	0.88668046	0.19918247
4	0.012	-1.4662339	0.038720783	-0.1146935	-1.0104125	0.077791333	0.013131162	-1.5958398	0.07009861	-0.15774152	-1.151097	0.071120945	0.009477595	-1.5875253	0.093527334	-0.074453936	-1.1165035	0.10800845	-0.061584729	-1.6696518	0.046516495	-0.11974824	-1.1807469	0.041928655	-0.056463129	-1.4542318	0.43133306	-0.18569646	-1.1706057	0.46836975	0.073176339	-1.4609929	0.41229635	-0.065027683	-1.1385582	0.48755288	-0.049315578	-1.3600203	0.81331184	-0.24744426	-1.334203	0.85298557	0.13161882	-1.2883825	0.91978552	-0.18937714	-1.2700202	0.93898344	0.054719772	-1.4772403	0.95279945	-0.051224027	-1.2981033	1.3995824	-0.22614834	-1.3431183	1.3996424	0.093311027	-1.3979134	1.4338337	-0.079814183	-1.3559541	1.0596525	-0.30268442	-1.515473	1.097243	0.15005766	-1.1831622	0.88269462	-0.28910027	-1.3934407	0.88554262	0.19898994
5	0.016	-1.4662115	0.038701565	-0.1147644	-0.99429751	0.079679875	0.012366544	-1.5959333	0.070533588	-0.15791897	-1.1350127	0.070017221	0.010204403	-1.5851648	0.094091411	-0.07434394	-1.1017882	0.10790222	-0.061069126	-1.6697157	0.046981926	-0.1192839	-1.1645916	0.040319283	-0.055476286	-1.4536389	0.43132526	-0.18585289	-1.165402	0.46700278	0.073117613	-1.4599408	0.41218428	-0.065153107	-1.1345659	0.48620658	-0.049718024	-1.3570966	0.8128278	-0.24749513	-1.3290681	0.85204116	0.13169073	-1.2849376	0.91892656	-0.18965492	-1.2651304	0.93811047	0.054488066	-1.4730313	0.95174271	-0.050376981	-1.2935905	1.3985475	-0.22619193	-1.3390172	1.3986393	0.09321546	-1.3937181	1.4329265	-0.080006496	-1.3499353	1.0581935	-0.3026405	-1.5123024	1.096802	0.14944628	-1.1747442	0.88336639	-0.28812816	-1.3914094	0.88432722	0.19881784
6	0.02	-1.4662116	0.038670767	-0.1148045	-0.97839859	0.08171165	0.011567274	-1.5958716	0.070842363	-0.15808281	-1.1190017	0.069215126	0.011024465	-1.5857307	0.094308834	-0.074013209	-1.0872868	0.1079925	-0.060521715	-1.6697761	0.047467829	-0.11882633	-1.1486061	0.038974765	-0.054379015	-1.4529512	0.43130343	-0.18601216	-1.1598939	0.4655161	0.073211161	-1.4587793	0.41202492	-0.065271688	-1.1306059	0.48469914	-0.050108394	-1.354067	0.81233689	-0.24746527	-1.3237993	0.85100091	0.13177596	-1.281475	0.91805112	-0.18993229	-1.2601621	0.93718281	0.054258747	-1.468812	0.95062206	-0.0495455	-1.2890524	1.397459	-0.22622799	-1.3348693	1.397571	0.093121924	-1.3895034	1.4319739	-0.080176048	-1.3438716	1.0566861	-0.30267693	-1.5092172	1.0964566	0.14893217	-1.1663655	0.88402222	-0.28713788	-1.3895266	0.88303841	0.19868606
7	0.024	-1.4662349	0.0386354	-0.11481947	-0.96274641	0.083931961	0.010941314	-1.5957113	0.071101362	-0.15828151	-1.1030851	0.068738777	0.011954166	-1.5883228	0.094266801	-0.073551981	-1.0730362	0.10823619	-0.059960505	-1.6698304	0.047977883	-0.11837698	-1.1327481	0.037871515	-0.053186127	-1.4521399	0.4312713	-0.18616582	-1.1545067	0.46388766	0.073352825	-1.4575042	0.41181586	-0.065372031	-1.1266698	0.48305358	-0.050482825	-1.3509966	0.81181769	-0.2474352	-1.318439	0.84988519	0.13186818	-1.2779879	0.91715604	-0.1902051	-1.2551395	0.93621387	0.054022694	-1.4645725	0.94944567	-0.048714496	-1.2844928	1.3963061	-0.22625452	-1.3306765	1.3964378	0.093039312	-1.385273	1.4309775	-0.080332523	-1.3377596	1.0551352	-0.30272538	-1.5061378	1.0960681	0.14842363	-1.158035	0.88466412	-0.28612555	-1.3876973	0.8817038	0.19858589
8	0.028	-1.4662654	0.038604094	-0.11483577	-0.94739215	0.086403217	0.010546384	-1.5955469	0.071344897	-0.15840799	-1.0872611	0.068580016	0.013004509	-1.5907101	0.094212005	-0.073132329	-1.059066	0.10861107	-0.059395835	-1.6698758	0.048516001	-0.11793717	-1.1169921	0.036998059	-0.051883734	-1.4512121	0.43122872	-0.18630936	-1.1495898	0.46212345	0.07345576	-1.4561294	0.41155755	-0.065453262	-1.1227502	0.48128487	-0.050846228	-1.3479687	0.81125606	-0.24752056	-1.3130697	0.84869303	0.13194385	-1.2744696	0.91624693	-0.19046738	-1.2500524	0.93521275	0.053778678	-1.4603093	0.94821596	-0.047878367	-1.2799187	1.3950844	-0.22627649	-1.3264532	1.3952609	0.092977192	-1.3810253	1.429942	-0.080474837	-1.3316152	1.0535494	-0.30273316	-1.5029658	1.0955221	0.14784612	-1.1497444	0.88528791	-0.28509344	-1.3857249	0.88036398	0.19849131
9	0.032	-1.4662863	0.038580002	-0.11487487	-0.93239759	0.089211513	0.010189187	-1.5955568	0.071614785	-0.1582136	-1.0716302	0.068667025	0.014125809	-1.59122	0.094359817	-0.072871189	-1.0454155	0.10910885	-0.058828163	-1.6699098	0.049086216	-0.11750823	-1.1014169	0.036323439	-0.050403826	-1.4501979	0.43117241	-0.18645739	-1.145069	0.4602772	0.07352102	-1.4546997	0.4112702	-0.065525366	-1.1188474	0.479398	-0.051204442	-1.3450356	0.81065851	-0.24780553	-1.3076815	0.84742194	0.13199821	-1.270916	0.91533499	-0.19071461	-1.2448802	0.93418277	0.053533636	-1.4560241	0.94694022	-0.047041295	-1.2753342	1.3938068	-0.22629844	-1.3221974	1.3940679	0.092931643	-1.3767657	1.4288716	-0.080620121	-1.32546	1.0519387	-0.30270262	-1.4996515	1.0948196	0.14719945	-1.1414698	0.88589441	-0.28405108	-1.3834184	0.87904437	0.19839878
10	0.036	-1.4662922	0.038561255	-0.11493774	-0.91782035	0.092431472	0.0096071713	-1.5959273	0.071983013	-0.15752666	-1.0563851	0.068905855	0.015227042	-1.5895086	0.094796263	-0.07278151	-1.0321265	0.10972432	-0.058256433	-1.6699297	0.049692587	-0.11709147	-1.0861871	0.035801407	-0.04860406	-1.4491096	0.4310995	-0.18662989	-1.1406265	0.45843423	0.073588058	-1.4532478	0.41099378	-0.065601212	-1.1149712	0.47739933	-0.051559514	-1.3421839	0.81004135	-0.24826408	-1.3022499	0.84607105	0.13203577	-1.2673304	0.91443095	-0.19094692	-1.2396527	0.93312615	0.053283231	-1.4517203	0.94563204	-0.046209055	-1.2707382	1.392496	-0.22631692	-1.3179044	1.392874	0.092889526	-1.3725061	1.4277671	-0.080800544	-1.3193161	1.0503134	-0.30267037	-1.4962031	1.0940227	0.14652342	-1.1331798	0.88649787	-0.28300657	-1.3807198	0.877744	0.1983329
11	0.04	-1.4662879	0.038544406	-0.11501184	-0.90368998	0.096062555	0.0087213113	-1.5966396	0.07251404	-0.15661883	-1.0416528	0.069249812	0.016252555	-1.5863907	0.095457075	-0.072800373	-1.0192241	0.11046	-0.05768781	-1.6699332	0.050339158	-0.11668825	-1.0714009	0.035405429	-0.046368421	-1.447935	0.43101012	-0.18682818	-1.1360285	0.45664404	0.073693891	-1.4517206	0.41075937	-0.06569469	-1.1111378	0.47530153	-0.051909521	-1.3393472	0.80941387	-0.24876541	-1.2967437	0.84465132	0.13206886	-1.263735	0.91353682	-0.19117344	-1.2344232	0.93204699	0.053011986	-1.4474084	0.9442979	-0.045388374	-1.266128	1.3911678	-0.22632579	-1.3135952	1.3916708	0.09284811	-1.3682461	1.4266343	-0.081009003	-1.3131975	1.0486815	-0.30266499	-1.4926543	1.0931744	0.14584202	-1.1248563	0.88711755	-0.28195809	-1.3777763	0.87644264	0.19830424
12	0.044	-1.4662802	0.038524615	-0.1150854	-0.8899672	0.10000835	0.0076858687	-1.5974292	0.073225434	-0.15618316	-1.0274272	0.069707101	0.017210719	-1.5833153	0.096164832	-0.072831212	-1.0067119	0.11131527	-0.057136014	-1.6699176	0.051029953	-0.11629991	-1.0570236	0.035132704	-0.043865975	-1.4466566	0.43090822	-0.18703552	-1.1312404	0.45490206	0.073863595	-1.4499945	0.41056077	-0.065819735	-1.1073629	0.47312185	-0.052246656	-1.3364608	0.80878154	-0.24918149	-1.2909448	0.84321059	0.13214782	-1.2601626	0.91264032	-0.19141002	-1.2291933	0.93094932	0.052714788	-1.4431009	0.94293097	-0.044586179	-1.2614974	1.3898237	-0.22631665	-1.3092934	1.39044	0.092814936	-1.3639686	1.4254845	-0.08118819	-1.3070954	1.0470439	-0.30266728	-1.4890058	1.0922616	0.14513172	-1.1165239	0.88775416	-0.28089162	-1.3749781	0.87509419	0.19827088
13	0.048	-1.4662717	0.038498119	-0.11515589	-0.87654836	0.10411708	0.0067234294	-1.5980387	0.074077902	-0.15668717	-1.0136496	0.070299164	0.018136353	-1.5813401	0.096769984	-0.072802292	-0.99458617	0.11226933	-0.056607786	-1.6698805	0.051768994	-0.11592779	-1.043004	0.034978655	-0.041590113	-1.445259	0.43080002	-0.18723923	-1.1263223	0.45320334	0.074110496	-1.4480174	0.41035123	-0.06597697	-1.1036523	0.4708788	-0.052551955	-1.3334865	0.80815637	-0.24943068	-1.2845346	0.84181156	0.13234557	-1.2566139	0.91172437	-0.19166119	-1.2239237	0.92983662	0.052403773	-1.4387949	0.94152487	-0.043797849	-1.256844	1.3884611	-0.22628074	-1.3049986	1.3891775	0.092796013	-1.359659	1.4243253	-0.081289481	-1.3009776	1.0453905	-0.30261323	-1.4851886	1.0912145	0.14431388	-1.108244	0.88838731	-0.27978255	-1.3728606	0.87362878	0.19814883
14	0.052	-1.46626	0.03846629	-0.11522798	-0.86340796	0.10823304	0.0059236456	-1.5984046	0.074985721	-0.15793367	-1.0002907	0.071032108	0.019051044	-1.5805289	0.097253104	-0.07270107	-0.98284598	0.11328736	-0.056096163	-1.6698192	0.052560299	-0.11557325	-1.0293804	0.034938463	-0.039906629	-1.4437387	0.4306908	-0.18744168	-1.1213278	0.45156717	0.074438515	-1.445899	0.41006976	-0.066144934	-1.0999935	0.46859145	-0.052796713	-1.3304155	0.80755419	-0.24947829	-1.2775848	0.8404537	0.13265727	-1.2530407	0.91078665	-0.19190921	-1.2186169	0.92870976	0.052090856	-1.4344735	0.94008766	-0.043004503	-1.2521734	1.3870847	-0.22621685	-1.3006988	1.3879019	0.092800825	-1.3553212	1.4231557	-0.081323993	-1.2948088	1.0437047	-0.30243912	-1.4811106	1.0899559	0.14329978	-1.1000597	0.88900179	-0.27860889	-1.3715894	0.87202603	0.19790046
